<svg xmlns="http://www.w3.org/2000/svg" viewBox="0 0 128 128" role="img" aria-label="Gemini Clash Village icon">
  <defs>
    <linearGradient id="sky" x1="20" y1="8" x2="108" y2="120" gradientUnits="userSpaceOnUse">
      <stop stop-color="#6ee7b7"/>
      <stop offset="0.58" stop-color="#4f9f42"/>
      <stop offset="1" stop-color="#20351f"/>
    </linearGradient>
    <linearGradient id="roof" x1="33" y1="26" x2="94" y2="83" gradientUnits="userSpaceOnUse">
      <stop stop-color="#f97316"/>
      <stop offset="1" stop-color="#8a2e18"/>
    </linearGradient>
    <filter id="shadow" x="-20%" y="-20%" width="140%" height="150%" color-interpolation-filters="sRGB">
      <feDropShadow dx="0" dy="8" stdDeviation="5" flood-color="#1b1207" flood-opacity="0.35"/>
    </filter>
  </defs>
  <rect width="128" height="128" rx="26" fill="url(#sky)"/>
  <circle cx="101" cy="23" r="14" fill="#fde68a" opacity="0.95"/>
  <path d="M10 94c17-14 32-18 48-11 18 8 36 5 60-13v58H10V94Z" fill="#315528" opacity="0.5"/>
  <g filter="url(#shadow)">
    <path d="M25 61h78l8 9v31H17V70l8-9Z" fill="#9b611f"/>
    <path d="M20 58 64 26l44 32v11H20V58Z" fill="url(#roof)"/>
    <path d="M64 14 14 52h100L64 14Z" fill="#b45309"/>
    <path d="M39 75h13v26H39V75Z" fill="#2d1c0a"/>
    <path d="M76 75h13v26H76V75Z" fill="#2d1c0a"/>
    <path d="M56 72h16v29H56V72Z" fill="#3f250c"/>
    <path d="M29 62h70" stroke="#fed7aa" stroke-width="4" stroke-linecap="round" opacity="0.7"/>
    <path d="M24 101h80v9H24v-9Z" fill="#c18635"/>
  </g>
  <path d="M20 111h88" stroke="#fde68a" stroke-width="5" stroke-linecap="round" opacity="0.75"/>
</svg>
