<svg xmlns="http://www.w3.org/2000/svg" viewBox="0 0 24 24" aria-hidden="true">
  <path d="M12 .297a12 12 0 0 0-3.79 23.388c.6.113.82-.258.82-.577v-2.234c-3.338.726-4.042-1.416-4.042-1.416-.546-1.387-1.333-1.756-1.333-1.756-1.089-.745.083-.729.083-.729 1.205.084 1.839 1.237 1.839 1.237 1.07 1.835 2.809 1.305 3.495.998.108-.776.418-1.305.762-1.604-2.665-.305-5.467-1.334-5.467-5.931 0-1.311.469-2.381 1.236-3.221-.124-.303-.535-1.524.117-3.176 0 0 1.008-.322 3.301 1.23a11.5 11.5 0 0 1 6.008 0c2.291-1.552 3.297-1.23 3.297-1.23.653 1.653.242 2.874.118 3.176.77.84 1.235 1.91 1.235 3.221 0 4.609-2.807 5.624-5.479 5.921.43.372.814 1.102.814 2.222v3.293c0 .319.216.694.825.576A12.003 12.003 0 0 0 12 .297Z"/>
</svg>
