<svg xmlns="http://www.w3.org/2000/svg" viewBox="0 0 64 64" role="img" aria-label="React Chess icon">
  <rect width="64" height="64" rx="14" fill="#111827"/>
  <path d="M10 10h22v22H10z" fill="#374151"/>
  <path d="M32 10h22v22H32z" fill="#4f46e5"/>
  <path d="M10 32h22v22H10z" fill="#4f46e5"/>
  <path d="M32 32h22v22H32z" fill="#1f2937"/>
  <path
    d="M24 50h25v-6H38c5-4 9-9 9-17 0-9-7-16-17-16-6 0-11 3-14 7l7 5c2-3 5-5 8-5 4 0 8 3 8 8 0 7-6 12-15 18v6z"
    fill="#f9fafb"
    stroke="#111827"
    stroke-width="3"
    stroke-linejoin="round"
  />
  <circle cx="32" cy="24" r="2" fill="#111827"/>
</svg>
