<svg xmlns="http://www.w3.org/2000/svg" viewBox="0 0 128 128" role="img" aria-label="Toy Box icon">
  <defs>
    <linearGradient id="room" x1="18" y1="8" x2="110" y2="124" gradientUnits="userSpaceOnUse">
      <stop stop-color="#fde68a"/>
      <stop offset="0.5" stop-color="#38bdf8"/>
      <stop offset="1" stop-color="#7c3aed"/>
    </linearGradient>
    <linearGradient id="box" x1="27" y1="57" x2="103" y2="112" gradientUnits="userSpaceOnUse">
      <stop stop-color="#f97316"/>
      <stop offset="1" stop-color="#b45309"/>
    </linearGradient>
    <filter id="shadow" x="-25%" y="-25%" width="150%" height="160%" color-interpolation-filters="sRGB">
      <feDropShadow dx="0" dy="8" stdDeviation="5" flood-color="#1f1027" flood-opacity="0.35"/>
    </filter>
  </defs>
  <rect width="128" height="128" rx="28" fill="url(#room)"/>
  <circle cx="101" cy="25" r="13" fill="#fff7ed" opacity="0.85"/>
  <path d="M19 44c10-14 22-16 36-5 11 9 24 9 38-4 8-7 15-9 24-8v101H19V44Z" fill="#0f172a" opacity="0.12"/>
  <g filter="url(#shadow)">
    <path d="M31 52h66l12 18H19l12-18Z" fill="#facc15"/>
    <path d="M24 69h80v42H24V69Z" fill="url(#box)"/>
    <path d="M24 69h80v12H24V69Z" fill="#fb923c"/>
    <path d="M58 52h12v59H58V52Z" fill="#22c55e"/>
    <path d="M35 83h18v18H35V83Z" fill="#60a5fa"/>
    <path d="M78 83h15v18H78V83Z" fill="#fef3c7"/>
  </g>
  <g stroke="#f8fafc" stroke-width="5" stroke-linecap="round" stroke-linejoin="round">
    <path d="M40 45 29 33l12-8 11 14"/>
    <path d="M84 46 99 33l-11-9-14 15"/>
  </g>
  <circle cx="43" cy="32" r="8" fill="#ef4444"/>
  <circle cx="87" cy="31" r="8" fill="#22c55e"/>
  <path d="M48 109h32" stroke="#fed7aa" stroke-width="5" stroke-linecap="round" opacity="0.75"/>
</svg>
